<svg width="110" height="41" viewBox="0 0 110 41" fill="none" xmlns="http://www.w3.org/2000/svg">
<path d="M54.848 12.912H57.944V27.456H65.936V30H54.848V12.912ZM73.4874 30.192C72.2554 30.192 71.1674 29.936 70.2234 29.424C69.2954 28.912 68.5754 28.184 68.0634 27.24C67.5674 26.28 67.3194 25.16 67.3194 23.88C67.3194 22.6 67.5674 21.488 68.0634 20.544C68.5754 19.584 69.2954 18.848 70.2234 18.336C71.1674 17.824 72.2554 17.568 73.4874 17.568C74.7034 17.568 75.7754 17.824 76.7034 18.336C77.6314 18.848 78.3434 19.584 78.8394 20.544C79.3514 21.488 79.6074 22.6 79.6074 23.88C79.6074 25.16 79.3514 26.28 78.8394 27.24C78.3434 28.184 77.6314 28.912 76.7034 29.424C75.7754 29.936 74.7034 30.192 73.4874 30.192ZM73.4634 27.84C74.4874 27.84 75.2634 27.512 75.7914 26.856C76.3354 26.184 76.6074 25.192 76.6074 23.88C76.6074 22.584 76.3354 21.6 75.7914 20.928C75.2474 20.24 74.4794 19.896 73.4874 19.896C72.4794 19.896 71.7034 20.24 71.1594 20.928C70.6154 21.6 70.3434 22.584 70.3434 23.88C70.3434 25.192 70.6074 26.184 71.1354 26.856C71.6794 27.512 72.4554 27.84 73.4634 27.84ZM93.9065 17.88V29.616C93.9065 31.504 93.3865 32.936 92.3465 33.912C91.3065 34.888 89.7785 35.376 87.7625 35.376C85.8905 35.376 84.2425 34.984 82.8185 34.2L83.2985 31.92C84.7705 32.688 86.2345 33.072 87.6905 33.072C89.8505 33.072 90.9305 32 90.9305 29.856V27.456C90.5625 28.112 90.0265 28.648 89.3225 29.064C88.6185 29.464 87.8265 29.664 86.9465 29.664C85.8905 29.664 84.9465 29.416 84.1145 28.92C83.2985 28.408 82.6585 27.696 82.1945 26.784C81.7465 25.856 81.5225 24.8 81.5225 23.616C81.5225 22.432 81.7465 21.384 82.1945 20.472C82.6585 19.544 83.2985 18.832 84.1145 18.336C84.9465 17.824 85.8905 17.568 86.9465 17.568C87.8425 17.568 88.6345 17.76 89.3225 18.144C90.0265 18.512 90.5625 19.032 90.9305 19.704V17.88H93.9065ZM87.7385 27.312C88.7305 27.312 89.5065 26.984 90.0665 26.328C90.6425 25.672 90.9305 24.768 90.9305 23.616C90.9305 22.464 90.6505 21.56 90.0905 20.904C89.5305 20.248 88.7465 19.92 87.7385 19.92C86.7465 19.92 85.9625 20.248 85.3865 20.904C84.8265 21.56 84.5465 22.464 84.5465 23.616C84.5465 24.768 84.8265 25.672 85.3865 26.328C85.9625 26.984 86.7465 27.312 87.7385 27.312ZM102.644 30.192C101.412 30.192 100.324 29.936 99.3796 29.424C98.4516 28.912 97.7316 28.184 97.2196 27.24C96.7236 26.28 96.4756 25.16 96.4756 23.88C96.4756 22.6 96.7236 21.488 97.2196 20.544C97.7316 19.584 98.4516 18.848 99.3796 18.336C100.324 17.824 101.412 17.568 102.644 17.568C103.86 17.568 104.932 17.824 105.86 18.336C106.788 18.848 107.5 19.584 107.996 20.544C108.508 21.488 108.764 22.6 108.764 23.88C108.764 25.16 108.508 26.28 107.996 27.24C107.5 28.184 106.788 28.912 105.86 29.424C104.932 29.936 103.86 30.192 102.644 30.192ZM102.62 27.84C103.644 27.84 104.42 27.512 104.948 26.856C105.492 26.184 105.764 25.192 105.764 23.88C105.764 22.584 105.492 21.6 104.948 20.928C104.404 20.24 103.636 19.896 102.644 19.896C101.636 19.896 100.86 20.24 100.316 20.928C99.7716 21.6 99.4996 22.584 99.4996 23.88C99.4996 25.192 99.7636 26.184 100.292 26.856C100.836 27.512 101.612 27.84 102.62 27.84Z" fill="white"/>
<circle cx="20.5" cy="20.5" r="20.5" fill="white"/>
<path d="M19.344 15.244H13.312V12.488H28.782V15.244H22.724V31H19.344V15.244Z" fill="#5B9BF3"/>
</svg>
